<svg width="162" height="37" viewBox="0 0 162 37" fill="none" xmlns="http://www.w3.org/2000/svg">
<path d="M72.1357 35.9899V35.9883" stroke="#179900" stroke-width="0.0512638" stroke-miterlimit="10"/>
<path d="M39.3474 35.9902H39.3457" stroke="#179900" stroke-width="0.0512638" stroke-miterlimit="10"/>
<path d="M72.1375 35.9902H72.1357" stroke="#179900" stroke-width="0.0512638" stroke-miterlimit="10"/>
<path d="M132.003 9.75586V24.5073C132.003 29.0811 129.329 33.0305 125.459 34.877C123.964 35.5907 122.289 35.99 120.522 35.99C118.754 35.99 117.09 35.5929 115.598 34.8836C111.72 33.04 109.04 29.0869 109.04 24.5073V9.75586H115.598V24.5146C115.598 27.2375 117.806 29.4452 120.529 29.4452C123.252 29.4452 125.459 27.2375 125.459 24.5146V9.75586H132.003Z" fill="white"/>
<path d="M148.899 9.75528C146.51 9.75528 144.27 10.3957 142.341 11.5146V0.878906H135.798V22.872C135.798 27.7242 138.429 31.9609 142.341 34.2301C144.27 35.349 146.51 35.9894 148.899 35.9894C156.134 35.9894 162 30.1166 162 22.872C162 15.6274 156.134 9.75528 148.899 9.75528ZM148.899 29.4446C145.277 29.4446 142.341 26.5086 142.341 22.8867C142.341 19.2647 145.277 16.3279 148.899 16.3279C152.522 16.3279 155.457 19.2647 155.457 22.8867C155.457 26.5086 152.521 29.4446 148.899 29.4446Z" fill="white"/>
<path d="M35.1068 18.4338C35.1068 28.1294 27.2483 35.9894 17.5538 35.9894C7.85923 35.9894 0 28.1294 0 18.4338C0 15.2772 0.833034 12.3147 2.29176 9.75528C5.31251 4.45393 11.0155 0.878906 17.5538 0.878906C24.092 0.878906 29.7951 4.45393 32.8151 9.75528C34.2738 12.3147 35.1068 15.2772 35.1068 18.4338Z" fill="rgb(138,180,248)"/>
<path d="M104.924 22.872V35.9894H98.3657V22.8867C98.3657 19.2647 95.43 16.3279 91.8077 16.3279C88.1854 16.3279 85.2504 19.2647 85.2504 22.8867V35.9894H78.6924V0.878906H85.2504V11.5102C87.1795 10.3942 89.4192 9.75528 91.8077 9.75528C94.1962 9.75528 96.4367 10.3942 98.3657 11.5102C102.286 13.778 104.924 18.0169 104.924 22.872Z" fill="white"/>
<path d="M72.1354 35.9885V35.9892H39.3467V35.9885L55.7407 18.4336L72.1354 35.9885Z" fill="white"/>
<path d="M72.1375 35.9902H72.1357" stroke="#179900" stroke-width="0.0512638" stroke-miterlimit="10"/>
<path d="M72.1354 0.878906L63.8461 9.75528L55.7407 18.4338L39.3467 35.9894V0.878906H72.1354Z" fill="rgb(138,180,248)"/>
<path d="M55.7407 18.4338L39.3467 35.9887V0.878906L47.636 9.75528L55.7407 18.4338Z" fill="rgb(138,180,248)"/>
<path d="M39.3474 35.9902H39.3457" stroke="#179900" stroke-width="0.0512638" stroke-miterlimit="10"/>
<path d="M56.7361 19.5002L39.3604 35.9758L55.7411 18.4355L56.7361 19.5002Z" fill="rgb(138,180,248)" fill-opacity="0.11"/>
</svg>
