<svg width="64" height="64" viewBox="0 0 64 64" fill="none" xmlns="http://www.w3.org/2000/svg">
<path d="M35.2506 46.4135C35.5192 46.5553 35.8195 46.6498 36.1513 46.6734C37.06 46.7286 37.8739 46.2166 38.2452 45.4448C38.3637 45.2006 38.4349 44.9328 38.4507 44.6493C38.5059 43.7356 37.9924 42.9244 37.2101 42.562C36.9415 42.4124 36.6412 42.3257 36.3094 42.3021C35.6693 42.2627 35.0847 42.499 34.658 42.9165C34.2866 43.2788 34.0417 43.7671 34.0101 44.3263C33.9469 45.2321 34.4684 46.0434 35.2506 46.4135Z" fill="url(#paint0_radial_293_1089)"/>
<path d="M34.761 38.7185C34.7768 38.7736 34.7926 38.8287 34.8084 38.876C34.84 38.939 34.8716 39.002 34.9112 39.065C34.927 39.0887 34.9349 39.1201 34.9506 39.1438C34.998 39.2225 35.0613 39.2856 35.1245 39.3565C35.1324 39.3644 35.1324 39.3722 35.1403 39.3801C35.4247 39.6715 35.8119 39.8448 36.2386 39.8605V39.8684C36.286 39.8684 36.3413 39.8684 36.3887 39.8763C37.0761 39.9157 37.7161 40.1126 38.285 40.4276C39.8021 41.1365 40.853 42.6487 40.9162 44.3894C40.9162 44.3815 40.9162 44.3658 40.9162 44.3579C40.9162 44.988 41.2797 45.5236 41.8012 45.7914C42.0224 45.9095 42.2753 45.9804 42.5439 45.9804C42.6861 45.9804 42.8205 45.9568 42.9548 45.9253C43.6422 45.7441 44.1558 45.1377 44.1716 44.3973C44.1716 44.3815 44.1716 44.3736 44.1716 44.3579C44.1716 44.3421 44.1637 44.3264 44.1637 44.3106C44.0452 40.2937 40.8688 36.9463 36.768 36.6864C36.61 36.6785 36.4519 36.6707 36.3018 36.6707C36.2939 36.6707 36.286 36.6707 36.2781 36.6707C36.2702 36.6707 36.2702 36.6707 36.2623 36.6707C36.2465 36.6707 36.2307 36.6707 36.2227 36.6707L36.2149 36.6785C35.4405 36.71 34.8163 37.2771 34.6978 38.0254C34.682 38.1041 34.6741 38.1908 34.6741 38.2774C34.6741 38.3877 34.682 38.4901 34.7057 38.5924C34.7294 38.624 34.7452 38.6712 34.761 38.7185Z" fill="url(#paint1_linear_293_1089)"/>
<path d="M50.7223 43.9091C50.7223 43.9012 50.7223 43.8854 50.7223 43.8775V43.8697C50.4378 36.7023 44.9464 30.9054 37.9536 30.0547C37.8983 30.0468 37.843 30.039 37.7798 30.0311C37.7086 30.0232 37.6455 30.0232 37.5743 30.0232C36.3812 30.0232 35.4014 30.9054 35.2434 32.0474C35.2276 32.1577 35.2197 32.2601 35.2197 32.3703C35.2197 32.3861 35.2197 32.4097 35.2197 32.4254C35.2197 32.5515 35.2355 32.6775 35.2592 32.7956C35.2592 32.8114 35.2671 32.835 35.2671 32.8508C35.2908 32.9689 35.3224 33.0792 35.362 33.1816C35.3699 33.2052 35.3778 33.2209 35.3857 33.2446C35.4251 33.3548 35.4805 33.4572 35.5358 33.5518C35.5436 33.5675 35.5515 33.5832 35.5595 33.5911C35.6227 33.6935 35.6859 33.788 35.7649 33.8825C35.8439 33.9771 35.9309 34.0558 36.0177 34.1346C36.0336 34.1424 36.0415 34.1582 36.0573 34.1661C36.1442 34.237 36.239 34.3079 36.3338 34.363C36.3496 34.3709 36.3654 34.3867 36.3891 34.3945C36.4919 34.4496 36.5946 34.5048 36.6973 34.5441C36.7131 34.552 36.7289 34.5521 36.7447 34.5599C36.8553 34.5993 36.9738 34.6387 37.1002 34.6623L37.1081 34.6781C38.7753 34.8435 40.3319 35.4105 41.6514 36.3006C42.892 37.1118 43.9192 38.2067 44.654 39.4826C45.4283 40.7979 45.9103 42.318 45.9972 43.9406C46.0051 44.0193 46.0051 44.0981 46.0051 44.1847C46.013 44.6022 46.1315 44.9881 46.3291 45.3268C46.3291 45.3268 46.3291 45.3268 46.3291 45.3347C46.3765 45.4134 46.4318 45.4922 46.4871 45.5709C46.495 45.5867 46.5108 45.5946 46.5187 45.6103C46.5266 45.6182 46.5346 45.6261 46.5346 45.634C46.5346 45.634 46.5345 45.6419 46.5424 45.6419C46.5819 45.6891 46.6293 45.7442 46.6689 45.7915C46.6925 45.8151 46.7241 45.8387 46.7479 45.8624C46.7795 45.886 46.8032 45.9175 46.8348 45.9411C46.8506 45.9569 46.8664 45.9726 46.8822 45.9805C46.898 45.9884 46.9138 45.9963 46.9217 46.012C47.1983 46.2168 47.5143 46.3744 47.862 46.4452C47.9884 46.4689 48.1227 46.4846 48.257 46.4925C48.2886 46.4925 48.3123 46.5003 48.344 46.5003C49.624 46.5003 50.6669 45.4764 50.6986 44.2084C50.6986 44.1926 50.6931 44.3363 50.6931 44.3205C50.7326 44.2418 50.7302 43.9879 50.7223 43.9091Z" fill="url(#paint2_linear_293_1089)"/>
<path d="M42.7489 50.9348C42.4249 51.1317 42.0852 51.3207 41.7454 51.5019C41.6585 51.5492 41.5795 51.5886 41.4925 51.6358C38.9009 52.9512 35.9695 53.6994 32.8564 53.6994C23.2956 53.6994 15.3784 46.6737 14.0115 37.5215C14.0826 42.523 15.1888 46.1224 15.5444 47.0518C15.5444 47.0518 15.5443 47.0597 15.5522 47.0597C16.935 51.1475 19.3449 54.7942 23.0665 57.4012C25.9979 59.4491 29.435 60.5205 32.9591 60.7251C33.3541 60.7485 33.7492 60.7642 34.1442 60.7642C40.1335 60.7407 45.3959 57.6375 48.4142 52.959C48.9831 52.0769 49.473 51.1475 49.8681 50.163L48.0349 49.8637C46.1939 49.5486 44.3371 49.9739 42.7489 50.9348Z" fill="url(#paint3_linear_293_1089)"/>
<path d="M41.7461 51.4941C42.0858 51.3129 42.4177 51.1318 42.7495 50.927C42.6942 50.9585 42.631 50.99 42.5757 51.0294C42.307 51.2027 42.0226 51.3523 41.7461 51.4941Z" fill="#00AEEF"/>
<path d="M38.2297 52.5494C37.8742 52.5888 37.5107 52.6045 37.1473 52.6045C31.5689 52.6045 27.0414 48.0993 27.0414 42.5308C27.0414 38.8919 28.9772 35.7021 31.8849 33.9299C33.3625 33.032 33.7496 31.4567 33.6944 30.0075C33.5995 27.3374 31.9244 24.8564 30.4232 22.0446C30.036 21.32 29.72 20.556 29.4434 19.7683C29.0404 18.6263 28.7638 17.4212 28.6059 16.1846C28.5268 15.5624 28.4715 14.9401 28.4557 14.3101C28.4557 14.1604 28.4557 14.0108 28.4557 13.8532C28.4241 12.6954 28.5268 11.514 28.7638 10.3247C29.2459 7.94601 30.2256 5.80367 31.5689 4C31.3397 4.08664 31.1185 4.18903 30.8972 4.29142C29.6409 4.86639 28.0211 6.03996 27.9421 6.0951C27.7209 6.24474 27.5075 6.41802 27.3179 6.58342C26.2117 7.49707 25.2477 8.63126 24.4655 9.93873C24.3628 10.1199 24.102 10.5767 24.0941 10.5846C24.023 10.7106 23.9598 10.8366 23.8966 10.9705C23.8492 11.065 23.7939 11.1595 23.7465 11.2619V11.2698C22.577 13.6485 22.0477 16.3264 22.1583 18.9885C22.2136 20.2409 22.3954 21.4854 22.7351 22.6904C22.9326 23.3835 23.1776 24.0609 23.4699 24.7225C23.8018 25.4628 24.189 26.1718 24.6314 26.8491C23.6754 25.7149 22.822 24.4941 22.0951 23.1945C21.542 22.21 21.06 21.1861 20.6412 20.1307C20.4358 19.6187 20.2462 19.0989 20.0802 18.5632C19.9301 18.1458 19.7879 17.7205 19.6535 17.2952C19.3691 17.8071 19.0846 18.3427 18.8002 18.894C18.1207 20.2252 17.7177 21.7059 17.6782 23.2181C17.6782 23.3284 17.6703 23.4387 17.6703 23.5568C17.6703 23.5647 17.6703 23.5804 17.6703 23.5883C17.6861 24.8722 17.8994 26.1481 18.255 27.3847C18.8002 29.275 19.6694 31.0786 20.6807 32.7169C20.6807 32.7169 18.6817 30.8739 17.8994 29.9602C17.6624 29.6767 17.4332 29.3932 17.2199 29.0939C16.6431 28.322 16.1295 27.5107 15.5685 26.7231C14.9285 28.763 14.5176 30.74 14.2806 32.6067C14.0593 34.3552 13.9803 36.0092 14.004 37.5294C15.371 46.6816 23.2803 53.7072 32.8489 53.7072C35.962 53.7072 38.8935 52.959 41.4851 51.6436C40.4817 52.1005 39.3913 52.4234 38.2297 52.5494Z" fill="url(#paint4_linear_293_1089)"/>
<defs>
<radialGradient id="paint0_radial_293_1089" cx="0" cy="0" r="1" gradientUnits="userSpaceOnUse" gradientTransform="translate(36.2041 44.4943) scale(4.37186 4.35794)">
<stop stop-color="#6A6A6A"/>
<stop offset="0.432" stop-color="#444444"/>
<stop offset="1"/>
</radialGradient>
<linearGradient id="paint1_linear_293_1089" x1="33.5152" y1="32.8092" x2="43.5236" y2="45.5648" gradientUnits="userSpaceOnUse">
<stop stop-color="#6A6A6A"/>
<stop offset="0.432" stop-color="#444444"/>
<stop offset="1"/>
</linearGradient>
<linearGradient id="paint2_linear_293_1089" x1="37.814" y1="28.7654" x2="48.5722" y2="45.1751" gradientUnits="userSpaceOnUse">
<stop stop-color="#6A6A6A"/>
<stop offset="0.432" stop-color="#444444"/>
<stop offset="1"/>
</linearGradient>
<linearGradient id="paint3_linear_293_1089" x1="15.5357" y1="47.9508" x2="47.7152" y2="52.8949" gradientUnits="userSpaceOnUse">
<stop stop-color="#6A6A6A"/>
<stop offset="0.432" stop-color="#444444"/>
<stop offset="1"/>
</linearGradient>
<linearGradient id="paint4_linear_293_1089" x1="20.3455" y1="11.5443" x2="31.4014" y2="54.3969" gradientUnits="userSpaceOnUse">
<stop stop-color="#6A6A6A"/>
<stop offset="0.432" stop-color="#444444"/>
<stop offset="1"/>
</linearGradient>
</defs>
</svg>
